<?xml version="1.0" encoding="UTF-8" standalone="no"?>
<!-- Created with Inkscape (http://www.inkscape.org/) -->

<svg
   width="88.636932mm"
   height="87.340599mm"
   viewBox="0 0 88.636932 87.340599"
   version="1.1"
   id="svg1"
   xmlns="http://www.w3.org/2000/svg"
   xmlns:svg="http://www.w3.org/2000/svg">
  <defs
     id="defs1" />
  <g
     id="layer1"
     transform="translate(-15.069901,-46.992161)">
    <rect
       style="fill:#003380;fill-rule:evenodd;stroke-width:0.254725"
       id="rect2"
       width="88.636932"
       height="87.340599"
       x="15.069901"
       y="46.992161" />
    <g
       id="g6"
       transform="translate(2.1166681)">
      <g
         id="g5"
         transform="translate(1.0696282,3.1780288)">
        <path
           d="m 29.473045,68.690552 7.250656,-6.850454 V 75.54101 Z"
           fill="#378bba"
           id="path2"
           style="fill:#0056d9;fill-opacity:1;stroke-width:0.162428" />
        <g
           id="g4">
          <g
             id="g3">
            <path
               d="M 16.421864,68.690552 36.723701,49.509277 v 9.590638 l -10.150919,9.590637 10.150919,9.59064 v 9.590635 z"
               fill="#378bba"
               id="path1"
               style="fill:#0056d9;fill-opacity:1;stroke-width:0.162428" />
            <path
               d="M 59.200734,68.690552 38.173832,49.509277 v 9.590638 l 10.150919,9.590637 -10.150919,9.59064 v 9.590635 z"
               fill="#30b9db"
               id="path3"
               style="fill:#abccff;fill-opacity:1;stroke-width:0.162428" />
          </g>
        </g>
      </g>
      <g
         id="g1"
         transform="translate(-37.188063,13.193045)"
         style="fill:#ffffff">
        <path
           d="m 103.02345,110.99934 c -0.86495,-0.84241 -0.73933,-2.29384 0.32151,-3.71811 0.78611,-1.05447 4.0708,-4.50888 6.44089,-6.77548 l 0.9585,-0.915163 -1.5255,-3.39076 c -1.70953,-3.802866 -1.70075,-3.875619 0.55526,-4.136255 l 1.24203,-0.142367 1.38811,2.175644 c 0.76271,1.19691 1.49913,2.175725 1.6307,2.175725 0.13154,0 1.50209,-1.139385 3.0421,-2.530221 2.67398,-2.418151 2.84057,-2.52418 3.74646,-2.396882 0.54654,0.07871 1.03163,0.03034 1.14561,-0.112148 0.26881,-0.333305 1.04032,0.160573 1.04032,0.666617 0,0.209154 -0.38568,0.736385 -0.8533,1.172741 -1.91996,1.787791 -6.01421,6.017987 -6.01421,6.211913 0,0.11512 0.8241,1.590796 1.83528,3.281666 l 1.7066,2.86055 c 0.076,0.12723 0.0616,0.29083 -0.035,0.39994 l -0.40622,0.32428 c -0.30685,0.35152 -0.51429,0.62722 -0.55526,0.97269 0.073,0.21207 -0.23381,0.3151 -0.5114,0.44844 -0.7043,0.33943 -1.22447,-0.0757 -3.37529,-2.69385 -0.98487,-1.19998 -1.88789,-2.18475 -2.00769,-2.18781 -0.26579,-0.006 -3.20872,3.33017 -5.48525,6.21795 -2.00769,2.54537 -3.77566,2.59693 -4.28709,2.09693 z"
           fill="#002cc4"
           id="path1-4"
           style="fill:#ffffff;stroke-width:0.812818" />
        <path
           d="m 100.63571,91.202948 c -0.0121,-0.01814 -0.0272,-0.03632 -0.035,-0.05149 -4.482926,-6.939196 -7.732586,-8.160356 -7.615706,-8.236091 1.7038,-1.136322 4.90084,-0.02127 6.876383,1.79996 0.0241,0.02127 0.0468,0.04849 0.073,0.07276 0.473423,0.418147 0.581513,0.569613 1.148483,1.224142 0.10227,0 2.28821,-3.766528 2.30281,-3.790778 4.40106,-7.196713 9.00378,-10.23904 11.6748,-10.232981 1.27413,0 1.4641,0.460597 1.4641,0.460597 -4.32802,2.342344 -7.98973,6.51794 -11.77125,14.208587 -1.05498,2.202957 -2.83176,5.757433 -2.96037,5.999863 -0.19278,0.363599 -0.22506,-0.178779 -1.1543,-1.454568 z"
           fill="#002cc4"
           id="path2-8"
           style="fill:#ffffff;stroke-width:0.812818" />
        <path
           d="m 85.986054,91.575735 c 1.19817,-0.306068 2.11871,-0.739367 2.7704,-1.303017 0.64872,-0.56365 1.09293,-1.236307 1.33552,-2.018137 0.24256,-0.781745 0.36239,-1.651472 0.36239,-2.605952 v -7.339133 c 0,-1.430233 0.16352,-2.609018 0.48805,-3.53323 0.32432,-0.924205 0.87955,-1.606009 1.66277,-2.045383 0.78322,-0.439384 1.86155,-0.660589 3.22921,-0.660589 v -3.593817 c -1.73295,0 -3.1912,0.196954 -4.37187,0.58786 -1.18057,0.390899 -2.12161,0.990877 -2.83173,1.796904 -0.71015,0.806039 -1.21862,1.827213 -1.53132,3.063539 -0.3127,1.236323 -0.46759,2.696884 -0.46759,4.384716 v 5.87248 c 0,2.006053 -0.3916,3.436286 -1.17771,4.293844 -0.78319,0.857561 -2.16252,1.28481 -4.1322,1.28481 v 4.402851 c 1.96968,0 3.34608,0.427249 4.1322,1.28481 0.78322,0.857561 1.17771,2.287795 1.17771,4.293844 v 5.869495 c 0,1.68781 0.15477,3.14834 0.46759,4.38464 0.3127,1.23639 0.82117,2.2575 1.53132,3.06358 0.71012,0.806 1.65116,1.40599 2.83173,1.7969 1.18067,0.39091 2.63597,0.58782 4.37187,0.58782 v -3.59677 c -1.36766,0 -2.44599,-0.2243 -3.22921,-0.66968 -0.78322,-0.44546 -1.33845,-1.1273 -1.66277,-2.04545 -0.32441,-0.91815 -0.48805,-2.09081 -0.48805,-3.5241 v -7.339128 c 0,-0.954565 -0.11977,-1.821148 -0.36239,-2.605953 -0.24256,-0.781829 -0.6868,-1.454567 -1.33552,-2.018136 -0.64876,-0.56365 -1.57223,-0.996944 -2.7704,-1.30302 -0.15205,-0.03938 -0.32438,-0.06663 -0.48805,-0.09998 v -0.566631 c 0.16382,-0.03335 0.33609,-0.06366 0.48805,-0.09998 z"
           fill="#002cc4"
           id="path3-3"
           style="fill:#ffffff;stroke-width:0.812818" />
        <path
           d="m 129.57589,91.575735 c -1.19822,-0.306068 -2.11874,-0.739367 -2.7704,-1.303017 -0.64881,-0.56365 -1.09302,-1.236307 -1.33552,-2.018137 -0.24256,-0.781745 -0.36239,-1.651472 -0.36239,-2.605952 v -7.339133 c 0,-1.430233 -0.16352,-2.609018 -0.48805,-3.53323 -0.32437,-0.924205 -0.87964,-1.606009 -1.66277,-2.045383 -0.78322,-0.439384 -1.86152,-0.660589 -3.2292,-0.660589 v -3.593817 c 1.73294,0 3.19122,0.196954 4.3718,0.58786 1.18063,0.390899 2.12167,0.990877 2.83176,1.796904 0.70722,0.806039 1.21865,1.827213 1.53132,3.063539 0.31273,1.236323 0.46759,2.696884 0.46759,4.384716 v 5.87248 c 0,2.006053 0.39163,3.436286 1.17771,4.293844 0.78322,0.857561 2.16255,1.28481 4.13223,1.28481 v 2.127225 0.145432 2.127225 c -1.96968,0 -3.34614,0.427249 -4.13223,1.284807 -0.78322,0.85748 -1.17771,2.287795 -1.17771,4.293762 v 5.869499 c 0,1.6878 -0.15477,3.14842 -0.46759,4.38472 -0.31267,1.23631 -0.82114,2.2575 -1.53132,3.0635 -0.70722,0.80608 -1.65113,1.40606 -2.83176,1.79689 -1.18058,0.39092 -2.636,0.58791 -4.3718,0.58791 v -3.59686 c 1.36768,0 2.44598,-0.22423 3.2292,-0.66967 0.78313,-0.44546 1.3384,-1.12722 1.66277,-2.04537 0.32441,-0.91815 0.48805,-2.09089 0.48805,-3.52418 v -7.339131 c 0,-0.954481 0.11977,-1.821145 0.36239,-2.605953 0.24256,-0.781829 0.68671,-1.454486 1.33552,-2.018136 0.6487,-0.563569 1.57218,-0.996944 2.7704,-1.302936 0.15205,-0.03938 0.32438,-0.06673 0.48802,-0.100073 v -0.566634 c -0.16352,-0.03335 -0.33606,-0.06366 -0.48802,-0.09998 z"
           fill="#002cc4"
           id="path4"
           style="fill:#ffffff;stroke-width:0.812818" />
      </g>
    </g>
  </g>
</svg>
